[center]


[img]http://img9.imageshack.us/img9/4371/lzv9z.jpg[/img]
Eldorado.2012.DVDRip.XviD-SPRiNTER


Date: 2012.03
 
http://www.imdb.com/title/tt1514043/

Genre: Comedy | Horror | Musical | Western

Subtitles: n/a


Release notes

Enjoy!


Details

Format: AVI
Format/Info: Audio Video Interleave
File size: 1.37 GiB
Duration: 1h 55mn
Overall bit rate: 1 694 Kbps
Writing application: VirtualDubMod 1.5.10.2 (build 2540/release)
Writing library: VirtualDubMod build 2540/release

Video
ID: 0
Format: MPEG-4 Visual
Format profile: Advanced Simple@L5
Format settings, BVOP: 2
Format settings, QPel: No
Format settings, GMC: No warppoints
Format settings, Matrix: Default (H.263)
Codec ID: XVID
Codec ID/Hint: XviD
Duration: 1h 55mn
Bit rate: 1 236 Kbps
Width: 640 pixels
Height: 352 pixels
Display aspect ratio: 16:9
Frame rate: 25.000 fps
Color space: YUV
Chroma subsampling: 4:2:0
Bit depth: 8 bits
Scan type: Progressive
Compression mode: Lossy
Bits/(Pixel*Frame): 0.220
Stream size: 1 020 MiB (73%)
Writing library: XviD 61

Audio
ID: 1
Format: AC-3
Format/Info: Audio Coding 3
Mode extension: CM (complete main)
Codec ID: 2000
Duration: 1h 55mn
Bit rate mode: Constant
Bit rate: 448 Kbps
Channel(s): 6 channels
Channel positions: Front: L C R, Side: L R, LFE
Sampling rate: 48.0 KHz
Bit depth: 16 bits
Compression mode: Lossy
Stream size: 370 MiB (26%)
Alignment: Split accross interleaves
Interleave, duration: 40 ms (1.00 video frame)
Interleave, preload duration: 500 ms


The Stranger, a tall striking creature dressed in white sets into motion
a series of events whilst reciting the Edgar Allen Poe Poem "Eldorado",
which will have an effect on those heading towards the mythical city.

[img]http://img855.imageshack.us/img855/517/vlcsnap2012030100h49m26.png[/img]
[img]http://img252.imageshack.us/img252/9017/vlcsnap2012030100h48m48.png[/img]
[img]http://img46.imageshack.us/img46/7451/vlcsnap2012030100h49m06.png[/img]
[img]http://img688.imageshack.us/img688/189/vlcsnap2012030100h48m15.png[/img]
[img]http://img848.imageshack.us/img848/7871/vlcsnap2012030100h48m41.png[/img][/center]